<?xml version="1.0" encoding="UTF-8" standalone="no"?>
<svg
   xmlns:dc="http://purl.org/dc/elements/1.1/"
   xmlns:cc="http://creativecommons.org/ns#"
   xmlns:rdf="http://www.w3.org/1999/02/22-rdf-syntax-ns#"
   xmlns:svg="http://www.w3.org/2000/svg"
   xmlns="http://www.w3.org/2000/svg"
   xmlns:sodipodi="http://sodipodi.sourceforge.net/DTD/sodipodi-0.dtd"
   xmlns:inkscape="http://www.inkscape.org/namespaces/inkscape"
   version="1.1"
   id="svg10"
   xml:space="preserve"
   width="1122.52"
   height="793.70667"
   viewBox="0 0 1122.52 793.70667"
   sodipodi:docname="cover.svg"
   inkscape:version="1.0.2 (e86c870879, 2021-01-15)"><metadata
     id="metadata16"><rdf:RDF><cc:Work
         rdf:about=""><dc:format>image/svg+xml</dc:format><dc:type
           rdf:resource="http://purl.org/dc/dcmitype/StillImage" /><dc:title></dc:title></cc:Work></rdf:RDF></metadata><defs
     id="defs14"><clipPath
       clipPathUnits="userSpaceOnUse"
       id="clipPath26"><path
         d="M 0,595.28 H 841.89 V 0 H 0 Z"
         id="path24" /></clipPath></defs><sodipodi:namedview
     pagecolor="#ffffff"
     bordercolor="#666666"
     borderopacity="1"
     objecttolerance="10"
     gridtolerance="10"
     guidetolerance="10"
     inkscape:pageopacity="0"
     inkscape:pageshadow="2"
     inkscape:window-width="1920"
     inkscape:window-height="1016"
     id="namedview12"
     showgrid="false"
     inkscape:zoom="0.72964041"
     inkscape:cx="858.69678"
     inkscape:cy="438.76813"
     inkscape:window-x="0"
     inkscape:window-y="27"
     inkscape:window-maximized="1"
     inkscape:current-layer="g18" /><g
     id="g18"
     inkscape:groupmode="layer"
     inkscape:label="Cover"
     transform="matrix(1.3333333,0,0,-1.3333333,0,793.70667)"><path
       style="fill:#383d45;stroke:none;stroke-width:0.250996"
       d="m 615.00101,364.40416 c -6.34642,4.51818 -14.6835,5.04828 -22.08762,6.47645 -3.26069,0.62899 -6.75957,2.15856 -10.03983,2.3084 0.14984,-3.28026 1.67941,-6.77914 2.3084,-10.03983 1.45854,-7.56099 2.12217,-15.48493 6.47645,-22.08762 -8.37598,-2.35936 -14.70454,-7.37501 -21.83663,-12.13138 -1.63276,-1.08907 -3.28586,-2.09983 -5.01992,-3.01948 -0.53045,-0.28137 -1.70506,-0.6679 -1.70506,-1.41562 0,-0.75851 1.1603,-1.16663 1.70506,-1.44297 1.74831,-0.88752 3.3895,-1.90305 5.01992,-2.99062 7.13766,-4.76013 13.45437,-9.77026 21.83663,-12.13138 -4.35428,-6.60269 -5.01791,-14.52663 -6.47645,-22.08762 -0.62899,-3.26069 -2.15856,-6.75957 -2.3084,-10.03983 3.28026,0.14984 6.77914,1.67941 10.03983,2.3084 7.40161,1.42767 15.74471,1.96078 22.08762,6.47645 2.35936,-8.37598 7.37501,-14.70459 12.13138,-21.83663 1.08907,-1.63273 2.09983,-3.28579 3.01948,-5.01992 0.28112,-0.52985 0.6679,-1.70501 1.41487,-1.70501 0.74696,0 1.13374,1.17516 1.41486,1.70501 0.91965,1.73413 1.93041,3.38719 3.01948,5.01992 4.76013,7.13756 9.77026,13.45437 12.13138,21.83663 6.33463,-4.50989 14.69454,-5.05029 22.08762,-6.47645 3.26069,-0.62899 6.75957,-2.15856 10.03983,-2.3084 -0.14984,3.28026 -1.67941,6.77914 -2.3084,10.03983 -1.45854,7.56099 -2.12217,15.48493 -6.47645,22.08762 8.37749,2.35987 14.70384,7.37451 21.83663,12.13138 1.63047,1.08757 3.27148,2.1031 5.01992,2.99062 0.54541,0.27685 1.70501,0.68471 1.70501,1.44373 0,0.75901 -1.1596,1.16687 -1.70501,1.44372 -1.74844,0.88752 -3.3892,1.90355 -5.01992,2.99062 -7.13254,4.75461 -13.46015,9.77202 -21.83663,12.13138 4.35227,6.59918 5.01841,14.52889 6.47645,22.08762 0.62899,3.26069 2.15856,6.75957 2.3084,10.03983 -3.28026,-0.14984 -6.77914,-1.67941 -10.03983,-2.3084 -7.40412,-1.42817 -15.7412,-1.95827 -22.08762,-6.47645 -2.35936,8.37598 -7.37501,14.70451 -12.13138,21.83663 -1.08757,1.63042 -2.1031,3.27161 -2.99062,5.01992 -0.27685,0.54541 -0.68471,1.70506 -1.44372,1.70506 -0.75902,0 -1.16688,-1.15965 -1.44373,-1.70506 -0.88351,-1.74053 -1.91134,-3.39369 -2.99062,-5.01992 -4.74332,-7.1464 -9.77001,-13.45362 -12.13138,-21.83663 m 16.81672,25.60157 12.84873,-19.32667 2.10384,-5.52191 0.93622,-1.87569 2.4339,1.04514 5.7729,2.33025 22.08763,4.2732 c -1.05217,-7.15137 -2.13296,-15.17319 -4.2732,-22.08763 -0.61469,-1.98562 -1.33856,-3.94214 -2.33025,-5.7729 -0.33658,-0.62171 -1.26652,-1.67514 -1.04514,-2.4339 0.19753,-0.67694 1.31547,-0.77533 1.87569,-0.93622 1.88448,-0.5419 3.76644,-1.22611 5.52191,-2.10384 6.95157,-3.47579 12.46319,-9.23364 19.32667,-12.84873 v -0.50199 l -19.32667,-12.84873 -5.52191,-2.09104 -1.87569,-0.94299 1.04514,-2.43993 2.33025,-5.7729 4.2732,-22.08763 -22.08763,4.2732 -5.7729,2.33025 -2.43993,1.04514 -0.94299,-1.87569 -2.09104,-5.52191 -12.84873,-19.32667 h -0.50199 l -12.84873,19.32667 -2.09104,5.52191 -0.94299,1.87569 -2.43993,-1.04514 -5.7729,-2.33025 -22.08763,-4.2732 c 1.05267,7.15463 2.13171,15.16918 4.2732,22.08763 0.61469,1.98562 1.33856,3.94214 2.33025,5.7729 0.33658,0.62171 1.26652,1.67514 1.04514,2.4339 -0.19753,0.67694 -1.31547,0.77533 -1.87569,0.93622 -1.88448,0.5419 -3.76644,1.22611 -5.52191,2.10384 -6.95233,3.47605 -12.46066,9.23238 -19.32667,12.84873 v 0.50199 c 6.86541,3.6161 12.37685,9.37394 19.32667,12.84873 1.74518,0.87271 3.63442,1.59507 5.52191,2.09104 0.58608,0.15411 1.67289,0.23041 1.87569,0.94299 0.21862,0.7673 -0.70479,1.81119 -1.04514,2.43993 -0.99169,1.83076 -1.71556,3.78728 -2.33025,5.7729 -2.14024,6.91444 -3.22103,14.93626 -4.2732,22.08763 l 22.08763,-4.2732 5.7729,-2.33025 2.43993,-1.04514 0.94299,1.87569 2.08477,5.52191 12.855,19.32667 h 0.50199 m -14.30677,-31.62547 c -5.78645,5.78269 -13.38209,6.55928 -21.08364,7.84287 -2.7469,0.45781 -5.52693,1.46983 -8.28286,1.69497 0.22589,-2.76446 1.2728,-5.53094 1.73664,-8.28286 1.30392,-7.73694 1.97157,-15.25 7.8012,-21.08364 -8.39104,-0.006 -14.58738,-5.17704 -21.08365,-9.82398 -1.45863,-1.04364 -2.95219,-2.02403 -4.51772,-2.90025 -0.49213,-0.2756 -1.45427,-0.64029 -1.45427,-1.33153 0,-0.693 0.96289,-1.05369 1.45427,-1.33229 1.56466,-0.88702 3.05369,-1.89251 4.51772,-2.93464 6.49452,-4.62234 12.7162,-9.78783 21.08365,-9.78884 -5.94183,-5.94584 -6.56731,-13.7006 -7.89006,-21.58563 -0.43096,-2.5692 -1.52981,-5.19988 -1.64778,-7.78087 2.60533,0.21284 5.18908,1.21281 7.78087,1.64778 7.88628,1.323 15.6423,1.95074 21.58563,7.89006 0.001,-8.31775 5.11504,-14.682 9.81795,-21.08365 1.06121,-1.44473 2.03081,-2.95347 2.90628,-4.51767 0.2756,-0.4922 0.64029,-1.45427 1.33154,-1.45427 0.69124,0 1.05593,0.96207 1.33153,1.45427 0.87622,1.56546 1.85661,3.05914 2.90025,4.51767 4.65196,6.5033 9.82297,12.68382 9.82398,21.08365 5.82536,-5.82135 13.35699,-6.49904 21.08364,-7.8012 2.75192,-0.46384 5.5184,-1.51075 8.28286,-1.73664 -0.22514,2.75593 -1.23716,5.53596 -1.69497,8.28286 -1.28359,7.70155 -2.06018,15.29719 -7.84287,21.08364 8.40485,0.001 14.57357,5.16725 21.08365,9.82398 1.45853,1.04364 2.95221,2.02403 4.51767,2.90025 0.4922,0.2756 1.45427,0.64029 1.45427,1.33154 0,0.69124 -0.96207,1.05593 -1.45427,1.33153 -1.56546,0.87622 -3.05914,1.85661 -4.51767,2.90025 -6.5033,4.65196 -12.68382,9.82297 -21.08365,9.82398 5.78671,5.79047 6.55777,13.37355 7.84287,21.08364 0.45781,2.7469 1.46983,5.52693 1.69497,8.28286 -2.58952,-0.11822 -5.20791,-1.21607 -7.78087,-1.64778 -7.878,-1.3215 -15.64607,-1.95451 -21.58563,-7.89006 -0.006,8.36268 -5.12433,14.29271 -9.62343,20.83265 -1.07627,1.56441 -2.16233,3.11443 -3.10005,4.76872 -0.2786,0.49138 -0.63929,1.45427 -1.33228,1.45427 -0.69125,0 -1.05594,-0.96212 -1.33154,-1.45427 -0.87547,-1.56418 -1.84507,-3.07297 -2.90628,-4.51772 -4.70291,-6.40165 -9.81694,-12.7659 -9.81795,-21.08365 m 14.30676,24.34659 c 1.58077,-2.83931 4.37435,-5.40695 4.72525,-8.78485 0.71659,-6.90263 -8.695,-9.02028 -9.91434,-1.75697 -0.68572,4.0832 2.87391,7.28518 4.6871,10.54182 h 0.50199 m -1.00398,-5.90768 c -4.38716,-1.01277 -2.85859,-7.76581 1.50597,-6.75832 4.40699,1.01754 2.83023,7.75929 -1.50597,6.75832 m 0.50324,-2.00923 c 2.08252,0.34412 2.75594,-3.04859 0.74069,-3.54782 -2.41332,-0.59837 -3.05989,3.16455 -0.74069,3.54782 m -5.77415,-0.61694 0.50199,-3.76494 -4.26693,-1.50597 c 0.70505,1.86038 2.18919,4.05508 3.76494,5.27091 m 12.29879,0 3.51394,-5.27091 -4.26693,1.50597 0.75299,3.76494 m -11.04381,-5.01992 2.00796,-2.00796 c -0.35591,-1.25398 -0.66313,-2.50695 -1.55969,-3.5029 -3.18338,-3.53653 -7.24649,1.48263 -3.20822,4.34398 0.81925,0.58056 1.81645,0.85941 2.75995,1.16688 m 7.52987,-2.00796 2.00796,2.00796 c 0.9435,-0.30747 1.9407,-0.58632 2.75995,-1.16688 4.03827,-2.86135 -0.0248,-7.88051 -3.20822,-4.34398 -0.89656,0.99595 -1.20378,2.24892 -1.55969,3.5029 m -1.25498,-0.75299 c 0.54341,-0.93471 1.0843,-1.91836 1.20754,-3.01195 0.56499,-5.01916 -6.46841,-4.44338 -5.34169,0.50199 0.20556,0.90158 0.66213,1.71882 1.1222,2.50996 h 3.01195 m -42.66928,-0.50199 c 2.74765,-1.03084 5.88158,-0.81499 8.53386,-2.13824 2.92184,-1.45753 5.01213,-6.13534 2.42461,-8.85212 -2.53731,-2.66406 -7.0846,-1.08154 -8.75874,1.70376 -0.77407,1.28761 -1.12848,2.80137 -1.38399,4.26668 -0.27033,1.5489 -1.01227,3.47027 -0.81574,5.01992 m 82.32661,-0.251 c -0.24271,-3.05035 -0.75248,-7.31151 -2.70172,-9.76624 -1.76299,-2.22031 -5.7847,-3.29608 -8.04391,-1.19223 -2.24491,2.09079 -1.45402,6.23222 0.72914,8.06474 2.49892,2.09732 6.85696,2.64223 10.01649,2.89373 m -71.78479,-1.50597 6.0239,-1.25498 c -1.02406,-1.30418 -2.44344,-1.68243 -4.01593,-2.00797 l -2.00797,3.26295 m 61.49396,0 -2.25896,-3.26295 c -1.57249,0.32554 -2.99187,0.70379 -4.01593,2.00797 l 6.27489,1.25498 m -66.26288,-1.64076 c -4.37661,-1.01051 -2.83424,-7.76882 1.50598,-6.79396 4.41928,0.99269 2.86486,7.80296 -1.50598,6.79396 m 69.27483,0 c -4.42279,-1.02105 -2.84754,-7.77184 1.50598,-6.79396 4.3726,0.98215 2.85206,7.79995 -1.50598,6.79396 m -44.175,-1.71757 c 3.40551,0.48919 4.23003,-4.67228 0.75274,-5.11805 -3.36234,-0.43096 -4.10228,4.63689 -0.75274,5.11805 m 19.82867,0 c 3.36535,0.48317 4.09825,-4.68759 0.75248,-5.11805 -3.44592,-0.44326 -4.19941,4.62309 -0.75248,5.11805 m -44.17175,-0.27559 c 2.26599,0.49446 3.01923,-3.02902 0.74546,-3.52499 -2.26599,-0.49446 -3.01923,3.02902 -0.74546,3.52499 m 6.52213,-0.88401 c 0.89982,0.34713 1.80315,0.76378 2.76095,0.92216 0.65535,0.10843 1.3604,0.10592 2.00772,-0.052 5.95286,-1.45226 -1.86038,-8.78108 -4.48831,-3.79957 -0.38151,0.72362 -0.17745,2.09607 -0.28036,2.92937 m 51.45438,0.90509 c 4.32667,0.99746 6.84892,-4.07215 2.00772,-5.19611 -3.67282,-0.85288 -6.05101,4.26391 -2.00772,5.19611 m 10.54534,-0.0211 c 2.26599,0.49446 3.01923,-3.02902 0.74546,-3.52499 -2.26599,-0.49446 -3.01923,3.02902 -0.74546,3.52499 m -37.90036,-1.00398 c 2.28506,0.49797 3.04558,-3.00292 0.74546,-3.47755 -2.28005,-0.47062 -3.01472,2.98308 -0.74546,3.47755 m 7.27636,0 c 2.26449,0.48793 3.0373,-3.07144 0.74797,-3.51244 -2.26197,-0.43573 -3.06164,3.01421 -0.74797,3.51244 m -20.33191,-1.51527 c 3.46123,0.1875 3.81464,-5.29776 0.251,-5.34269 -3.34828,-0.0422 -3.60254,5.16148 -0.251,5.34269 m 33.88443,0 c 3.35406,0.18147 3.58673,-5.06509 0.251,-5.33441 -3.55009,-0.28664 -3.72854,5.14642 -0.251,5.33441 m -16.56572,-2.38069 c 2.10335,-4.49985 4.04053,-7.10544 2.76095,-12.29879 l -2.25896,0.25099 0.75299,6.77689 -1.50597,-1.25498 -1.50598,1.25498 0.75299,-6.77689 -2.25896,-0.25099 c -1.27958,5.19335 0.6576,7.79894 2.76095,12.29879 h 0.50199 m -39.65733,-0.251 3.01195,-2.25896 c -0.32554,-1.57274 -0.70379,-2.99187 -2.00797,-4.01593 -0.62347,1.66435 -1.42289,4.52947 -1.00398,6.27489 m 79.06367,0 -1.25498,-6.27489 c -1.30418,1.02406 -1.68243,2.44344 -2.00797,4.01593 l 3.26295,2.25896 m -67.99727,-0.44878 c 3.24086,0.83155 6.24528,-5.17051 2.23612,-6.21817 -3.41931,-0.89379 -6.30124,5.17504 -2.23612,6.21817 m 56.44167,0.0354 c 4.07366,-0.31399 1.89201,-6.50832 -1.49618,-6.32534 -4.35553,0.23543 -2.09707,6.60244 1.49618,6.32534 m -34.12563,-0.0886 c 2.58425,-1.97659 1.62268,-3.29607 1.25498,-6.0239 h -0.251 c -1.38525,2.39651 -2.73033,3.29332 -1.00398,6.0239 m 12.29879,0 c 0.74345,-3.13719 0.33985,-3.26495 -1.25498,-6.0239 -1.23389,2.30364 -1.38449,4.7378 1.25498,6.0239 m -18.0717,-1.50597 c 3.74235,-2.96778 7.05048,-5.05079 7.27888,-10.29083 l -2.25896,-0.50199 -1.50598,6.27489 h -1.00398 v -1.75697 l -2.00796,0.75299 3.26294,-6.0239 -1.75697,-1.00398 h -0.251 c -2.70548,3.52047 -3.77271,8.3554 -1.75697,12.54979 m 23.8446,0 c 0.39582,-5.00988 1.32451,-8.21359 -2.00796,-12.54979 h -0.251 l -1.75697,1.00398 3.26294,6.0239 -2.00796,-0.75299 v 1.75697 h -1.00398 l -1.50598,-6.27489 c -2.72581,0.36947 -2.27502,2.07147 -1.48338,4.26693 1.08932,3.02023 4.05383,5.02092 6.75429,6.52589 m -46.83731,-0.92668 c 3.9469,1.55316 5.71642,-5.34244 2.15906,-6.62629 -3.6801,-1.32802 -4.85426,5.56558 -2.15906,6.62629 m 67.2144,-0.0193 c 4.11257,1.34332 5.14266,-5.63034 1.70954,-6.62931 -3.69767,-1.07626 -4.67279,5.66121 -1.70954,6.62931 m -53.99948,-0.16792 c 2.44571,0.67844 3.4271,-2.89699 0.98918,-3.46751 -2.14702,-0.50249 -3.13168,2.8734 -0.98918,3.46751 m 41.92885,0 c 2.30589,0.6561 3.45897,-2.64525 1.22034,-3.41982 -2.21303,-0.76604 -3.49311,2.77325 -1.22034,3.41982 m -37.42197,-1.89803 c 2.67863,-1.42792 2.88269,-2.26499 3.26295,-5.27091 -2.11565,1.27355 -4.48881,2.34932 -3.26295,5.27091 m 34.38642,0 c -2.5e-4,-3.15477 -0.9091,-3.70294 -3.51394,-5.27091 0.38026,3.00693 0.57303,4.12988 3.51394,5.27091 m -43.91321,-3.12465 c 2.34756,0.60566 3.30812,-2.95748 0.98214,-3.53879 -2.269,-0.567 -3.22454,2.96025 -0.98214,3.53879 m 52.20084,0 c 2.28582,0.57654 3.21727,-2.87992 0.98817,-3.51946 -2.2956,-0.65836 -3.32895,2.92887 -0.98817,3.51946 m -47.44297,-0.64029 c 4.2722,-1.20101 8.92089,-1.88974 10.54183,-6.77688 l -1.50598,-1.25498 h -0.25099 l -4.76892,5.01991 0.50199,-1.75697 -1.75697,0.50199 5.01991,-4.76892 v -0.25099 l -1.25498,-1.50598 c -3.70695,1.22913 -7.4483,6.75581 -6.52589,10.79282 m 43.92426,0 c -0.57302,-2.77727 -0.97436,-6.13935 -3.0383,-8.26027 -0.64807,-0.66589 -4.88488,-3.91352 -4.5114,-0.77532 0.27986,2.35032 3.91353,2.68766 4.53775,4.76866 l -1.75697,-0.50199 0.50199,1.75697 c -2.75844,-0.82753 -2.89548,-6.03569 -6.52589,-3.76493 1.59584,4.81108 6.43202,5.87731 10.79282,6.77688 m -53.46184,-2.61261 c 3.26219,0.66639 4.5247,-4.40899 1.25372,-5.15997 -3.42333,-0.78587 -4.72299,4.45141 -1.25372,5.15997 m 61.7447,0.0123 c 3.52172,0.6187 4.2461,-4.78549 0.75299,-5.2541 -3.34351,-0.44853 -4.04204,4.67656 -0.75299,5.2541 m -31.87646,-1.48715 c 2.08327,0.24898 4.25588,-0.0695 6.27489,-0.58859 15.0482,-3.86835 17.73788,-24.35914 5.01992,-32.63572 -2.32522,-1.51326 -5.03121,-2.43793 -7.78087,-2.77577 -18.57118,-2.28079 -27.17857,22.73068 -12.0478,33.05238 2.59154,1.76802 5.44862,2.57848 8.53386,2.9477 m -19.07568,-4.1954 c -3.00693,0.38026 -4.12988,0.57303 -5.27091,3.51394 3.1766,0 3.68487,-0.87924 5.27091,-3.51394 m 46.43422,3.51394 -1.50598,-3.26294 -3.76493,-0.251 c 1.5873,2.63671 2.10686,3.51219 5.27091,3.51394 m -26.05713,-0.49471 c -1.02055,-0.27183 -0.61017,-1.8536 0.42218,-1.5755 1.01302,0.27258 0.57829,1.84231 -0.42218,1.5755 m -3.03579,-0.30245 c -0.97261,-0.1393 -0.81222,-1.72384 0.20582,-1.59583 0.99796,0.1255 0.77633,1.73639 -0.20582,1.59583 m 6.27489,0.0291 c -0.96256,-0.16692 -0.82226,-1.75446 0.20582,-1.62495 1.00248,0.12625 0.77683,1.79537 -0.20582,1.62495 m -9.48437,-1.0331 c -0.9435,-0.47012 -0.0771,-2.03081 0.77658,-1.44022 0.70103,0.48543 0.0454,1.84984 -0.77658,1.44022 m 12.29779,0 c -0.88401,-0.43322 -0.35843,-2.01424 0.60188,-1.44022 0.77684,0.4646 0.29292,1.87871 -0.60188,1.44022 m -15.23444,-1.48339 c -0.79164,-0.54792 0.11997,-2.00068 0.95227,-1.42465 0.78738,0.54491 -0.14783,1.98111 -0.95227,1.42465 m 17.98936,0 c -0.82954,-0.49747 -0.35691,-1.98864 0.60817,-1.45 0.83381,0.46535 0.3288,2.01198 -0.60817,1.45 m -11.36383,-0.0949 c -14.52362,-2.56719 -15.13931,-23.99846 -1.00398,-27.70492 2.16208,-0.567 4.34097,-0.58682 6.52589,-0.17469 1.97885,0.37323 3.88516,1.15533 5.52191,2.33075 12.25336,8.79916 3.62714,28.14214 -11.04382,25.54886 m 4.26693,-0.88753 c -0.25978,-2.95371 -2.85533,-3.01471 -3.01195,0 h 3.01195 m -18.82468,-5.01991 -6.0239,3.26294 0.75299,-2.00796 h -1.75697 v -1.00398 l 6.27489,-1.50598 -0.50199,-2.25896 c -4.94964,0.21586 -7.99572,3.41153 -10.29083,7.52987 3.2017,0.25301 6.15492,1.37546 9.28685,0.0304 2.22758,-0.95654 3.31967,-1.74291 2.25896,-4.0463 m 14.55775,4.76892 c 1.34383,-4.0955 4.19038,-4.08395 5.52191,0 l 1.50597,-0.50199 c -0.38628,-1.62972 -1.072,-3.57017 -2.53254,-4.54453 -3.19644,-2.13271 -5.61302,2.20349 -6.00131,4.79552 l 1.50597,0.251 m 31.62547,-0.75299 c -2.29511,-4.11834 -5.34119,-7.31401 -10.29083,-7.52987 l -0.50199,2.25896 6.27489,1.50598 v 1.00398 h -1.75697 l 0.75299,2.00796 -6.0239,-3.26294 c -2.49314,6.13057 8.57076,4.25111 11.54581,4.01593 m -63.24717,0.4021 c 3.36987,0.74822 4.51441,-4.41728 1.25021,-5.16273 -3.25692,-0.74371 -4.48555,4.44438 -1.25021,5.16273 m 67.5151,0.0125 c 3.3395,0.64832 4.47802,-4.44489 1.25021,-5.11354 -3.37414,-0.69877 -4.53825,4.47525 -1.25021,5.11354 m -44.85219,-0.43623 c -0.94324,-0.54994 -0.0848,-1.92564 0.84435,-1.41211 0.91739,0.50676 0.0542,1.93619 -0.84435,1.41211 m 22.62401,0 c -0.88978,-0.53638 -0.10643,-1.92163 0.81548,-1.41211 0.93421,0.5163 0.0831,1.95376 -0.81548,1.41211 m -16.42617,-0.22941 c 1.2989,-3.16707 2.31594,-8.33582 -3.01195,-7.44805 -1.1463,0.19101 -2.19847,0.73642 -3.26295,1.17315 l 0.75299,1.50598 c 4.12185,-1.47435 5.48401,-0.0876 4.01593,4.01593 l 1.50598,0.75299 m 11.29481,0 1.25498,-0.75299 c -0.24171,-0.67593 -0.6039,-1.31773 -0.80319,-2.00797 -1.33128,-4.6138 4.74181,-1.1591 5.57211,-3.51394 -1.72886,-0.70906 -3.85856,-1.81219 -5.77165,-1.06874 -2.90528,1.12923 -1.73488,5.54751 -0.25225,7.34364 m -13.80477,-1.50598 c 1.69824,-2.41608 0.15712,-3.9572 -2.25896,-2.25896 v 0.251 l 2.25896,2.00796 m 16.31473,0 2.00796,-2.00796 v -0.251 c -2.42186,-1.70225 -4.36005,0.23568 -2.00796,2.25896 m -52.70912,-0.50199 c -0.18147,-3.97075 -2.01624,-3.76519 -5.27091,-3.76494 1.21583,1.57575 3.41053,3.05989 5.27091,3.76494 m 30.52661,-0.26254 c -0.80369,-0.62222 0.42067,-1.81671 1.15885,-1.23189 0.81699,0.64732 -0.4036,1.81646 -1.15885,1.23189 m 26.78301,0 c -0.90811,-0.58457 -0.0505,-1.80767 0.84435,-1.23189 0.93797,0.60365 0.0663,1.81771 -0.84435,1.23189 m 31.79388,0.26254 5.01992,-3.76494 -3.76494,-0.50199 c -0.80519,1.2221 -1.86289,2.77602 -1.25498,4.26693 m -87.34653,-7.02788 -2.00796,2.00796 c 0.30747,0.9435 0.58632,1.9407 1.16688,2.75995 2.86135,4.03827 7.88051,-0.0248 4.34398,-3.20822 -0.99595,-0.89656 -2.24892,-1.20378 -3.5029,-1.55969 m 87.34653,2.00796 -2.00796,-2.00796 c -1.25398,0.35591 -2.50695,0.66313 -3.5029,1.55969 -3.53653,3.18338 1.48263,7.24649 4.34398,3.20822 0.58056,-0.81925 0.85941,-1.81645 1.16688,-2.75995 m -71.78479,2.50996 2.76096,-2.25896 v -0.251 c -2.56493,-0.34562 -4.55859,-1.5012 -6.0239,1.50598 l 3.26294,1.00398 m 24.34659,0 2.25896,-2.00796 h 1.00399 l 2.50995,2.00796 c 0.64406,-3.08122 1.18571,-3.62287 4.26693,-4.26693 l -2.00796,-2.50995 v -1.00399 l 2.00796,-2.50995 c -3.08122,-0.64406 -3.62287,-1.18571 -4.26693,-4.26693 l -2.50995,2.00796 h -1.00399 l -2.50995,-2.00796 c -0.64406,3.08122 -1.18571,3.62287 -4.26693,4.26693 l 2.00796,2.76095 v 0.50199 l -2.00796,2.76095 3.32368,0.94325 1.19424,3.32368 m 33.13144,-1.00398 c -1.44347,-3.03153 -3.45822,-1.85185 -6.0239,-1.50598 2.30791,2.23763 3.10482,2.19772 6.0239,1.50598 m -45.59765,0.48041 c -0.96558,-0.57052 0.22163,-1.83604 1.01528,-1.22185 0.755,0.58457 -0.26505,1.66535 -1.01528,1.22185 m 29.61374,0 c -0.96608,-0.55144 -0.065,-1.8147 0.84059,-1.22185 0.85187,0.55771 -0.0168,1.69221 -0.84059,1.22185 m -48.01624,-1.35337 c 2.24164,0.48919 2.93991,-3.00467 0.74445,-3.53126 -2.27076,-0.54466 -3.01596,3.03554 -0.74445,3.53126 m 66.51488,0 c 2.27829,0.50098 3.02324,-3.11059 0.74445,-3.5541 -2.23411,-0.43473 -2.95723,3.06792 -0.74445,3.5541 m -91.11623,-5.65293 v 0.50199 c 2.78379,1.5499 5.26313,4.21648 8.53385,4.69337 7.20584,1.05042 9.34809,-9.00673 1.75697,-9.9181 -3.91904,-0.47036 -7.20079,2.82471 -10.29082,4.72274 m 116.46203,0.50199 v -0.50199 c -2.80462,-1.72284 -5.81557,-4.68383 -9.28684,-4.75537 -8.40158,-0.17293 -6.98471,11.40324 1.00398,9.90881 3.09102,-0.57804 5.67075,-3.04683 8.28286,-4.65145 m -62.99993,0 v -0.50199 l 1.66711,-2.98359 2.85081,-1.53433 h 0.50199 l 2.98359,1.66711 1.53433,2.85081 v 0.50199 c -1.00724,0.81247 -0.91738,2.41985 -1.66711,2.98359 -1.78659,1.34282 -3.14698,0.79691 -4.86856,0.25601 -0.45657,-0.14357 -1.14078,0.0462 -1.46783,-0.38879 -0.73416,-0.97713 -0.36821,-1.91008 -1.53433,-2.85081 m -7.78087,-4.51792 -0.251,1.50597 c 4.09399,1.3348 4.09399,4.18711 0,5.52191 l 0.50199,1.50597 c 1.68494,-0.39933 3.81439,-1.14404 4.68911,-2.77074 1.70677,-3.17434 -2.41157,-5.38436 -4.9401,-5.76311 m 25.09957,8.53385 c 0.3514,-2.26624 -6.09618,-4.09248 -1.50547,-6.38307 0.55244,-0.27534 1.18068,-0.42393 1.75647,-0.64481 l -0.50199,-1.50597 c -1.59684,0.3785 -3.60229,1.08154 -4.54453,2.52075 -2.09306,3.19668 2.19044,5.6228 4.79552,6.0131 m -28.74579,-0.51353 c -0.87698,-0.61168 0.18549,-1.83278 0.98466,-1.23189 0.81448,0.61268 -0.15964,1.80717 -0.98466,1.23189 m 31.40735,0 c -0.81448,-0.61268 0.15938,-1.80717 0.98466,-1.23189 0.87698,0.61168 -0.18549,1.83277 -0.98466,1.23189 m -65.1595,-0.40335 c -4.3155,-1.3481 -2.23487,-8.01154 2.00796,-6.69983 4.28601,1.325 2.24943,8.02985 -2.00796,6.69983 m 30.87248,-2.59706 -6.77689,0.75299 1.25498,-1.50597 -1.25498,-1.50598 6.77689,0.75299 c -0.005,-6.40742 -9.41009,-0.73115 -12.0478,0.50199 v 0.50199 c 2.63771,1.23314 12.04278,6.90941 12.0478,0.50199 m 50.19915,-0.50199 v -0.50199 c -2.63797,-1.23314 -12.04278,-6.90941 -12.0478,-0.50199 l 6.77689,-0.75299 -1.25498,1.50598 1.25498,1.50597 -6.77689,-0.75299 c 0.005,6.40742 9.40983,0.73115 12.0478,-0.50199 m 17.06771,3.12816 c -4.3746,-1.01001 -2.83525,-7.79191 1.50598,-6.75906 4.39769,1.0464 2.83248,7.76053 -1.50598,6.75906 m -90.10748,-4.88513 v 3.01195 c 0.944,0.54843 1.9151,1.03009 3.01195,1.17842 4.98628,0.67518 4.47777,-6.44707 -0.50199,-5.31257 -0.90158,0.20556 -1.71882,0.66213 -2.50996,1.1222 m 83.83259,3.01195 v -3.01195 c -0.93471,-0.54341 -1.91836,-1.0843 -3.01195,-1.20754 -5.01916,-0.56499 -4.44338,6.46841 0.50199,5.34169 0.90158,-0.20556 1.71882,-0.66213 2.50996,-1.1222 m -41.66555,0.8072 c 3.02023,-0.20958 2.49189,-4.93181 -0.50149,-4.65547 -3.00768,0.27785 -2.5092,4.8643 0.50149,4.65547 m -49.43487,-0.70856 c 2.10309,0.79591 3.56288,-2.3192 1.48012,-3.1751 -2.16685,-0.89053 -3.77247,2.30741 -1.48012,3.1751 m 97.12909,0.0424 c 2.29385,0.61092 3.37714,-2.78078 0.99544,-3.32042 -2.20098,-0.49848 -3.17685,2.73911 -0.99544,3.32042 m -60.99674,-3.15301 v 3.01195 c 3.01471,-0.15662 2.95371,-2.75217 0,-3.01195 m 26.10355,3.01195 v -3.01195 c -2.99061,0.15562 -2.99061,2.85633 0,3.01195 m -29.31304,-0.72538 c -0.98767,-0.29241 -0.58231,-1.79989 0.42218,-1.54086 1.03887,0.26781 0.60013,1.84306 -0.42218,1.54086 m 31.90006,-0.062 c -0.93521,-0.5168 -0.11195,-1.97107 0.81548,-1.41211 0.88552,0.53387 0.0806,1.90732 -0.81548,1.41211 m -15.98944,-0.2372 c -0.62021,-0.44928 0.0791,-1.41335 0.70129,-0.96281 0.62021,0.44928 -0.0791,1.41335 -0.70129,0.96281 m -33.52274,-2.39374 c 2.13924,0.77005 3.38694,-2.61337 1.23289,-3.41932 -2.18692,-0.81849 -3.42007,2.63194 -1.23289,3.41932 m 66.7586,0.0417 c 2.27076,0.54466 3.01596,-3.03554 0.74445,-3.53126 -2.24164,-0.48919 -2.93991,3.00467 -0.74445,3.53126 m -49.08122,-0.65083 c -0.87698,-0.61168 0.18549,-1.83277 0.98466,-1.23189 0.81448,0.61268 -0.15964,1.80717 -0.98466,1.23189 m 31.40735,0 c -0.81448,-0.61268 0.15938,-1.80717 0.98466,-1.23189 0.87698,0.61168 -0.18549,1.83278 -0.98466,1.23189 m -59.88859,-2.24741 2.00796,2.00796 c 1.25398,-0.35591 2.50695,-0.66313 3.5029,-1.55969 3.53653,-3.18338 -1.48263,-7.24649 -4.34398,-3.20822 -0.58056,0.81925 -0.85941,1.81645 -1.16688,2.75995 m 87.34653,2.00796 c 0.49747,-0.70956 1.34081,-1.4116 1.58202,-2.25896 1.62068,-5.68982 -9.56896,-5.1173 -5.74002,-0.004 0.37574,0.50175 0.86644,0.92919 1.39729,1.26 0.83582,0.52132 1.82374,0.73668 2.76071,1.00273 m -67.01587,-2.00796 v -0.251 c -2.75895,-1.59483 -2.88671,-1.99843 -6.0239,-1.25498 1.46531,3.00718 3.45897,1.8516 6.0239,1.50598 m 54.71707,-1.50598 c -3.13719,-0.74345 -3.26495,-0.33985 -6.0239,1.25498 2.30364,1.23389 4.7378,1.38449 6.0239,-1.25498 m -35.89239,-5.52191 -1.50598,0.75299 c 0.24146,0.67493 0.60792,1.31748 0.80244,2.00797 1.31045,4.65622 -4.73705,1.14755 -5.57136,3.51394 3.14247,1.28886 8.37347,2.32045 7.4473,-3.01195 -0.19603,-1.12973 -0.76027,-2.20048 -1.1724,-3.26295 m 17.31871,6.2749 -0.75299,-1.50598 c -0.67493,0.24146 -1.31748,0.60792 -2.00797,0.80244 -4.60527,1.29614 -1.16537,-4.74332 -3.51394,-5.57136 -1.2989,3.16707 -2.31594,8.33582 3.01195,7.44805 1.1463,-0.19101 2.19847,-0.73642 3.26295,-1.17315 m -30.37049,1.00398 0.50199,-2.25896 -6.27489,-1.50598 v -1.00398 h 1.75697 l -0.75299,-2.00796 6.0239,3.26294 1.00398,-1.75697 v -0.251 c -4.3362,-3.33247 -7.53991,-2.40378 -12.54979,-2.00796 2.29511,4.11834 5.34119,7.31401 10.29083,7.52987 m 47.4382,-7.52987 c -5.05857,-0.21787 -8.12197,-1.39504 -12.54979,2.00796 v 0.251 l 1.00398,1.75697 6.0239,-3.26294 -0.75299,2.00796 h 1.75697 v 1.00398 l -6.27489,1.50598 0.50199,2.25896 c 4.94964,-0.21586 7.99572,-3.41153 10.29083,-7.52987 m -44.09168,6.51434 c -0.85187,-0.55771 0.0168,-1.69221 0.84059,-1.22185 0.96608,0.55144 0.065,1.8147 -0.84059,1.22185 m 29.43905,0 c -0.755,-0.58457 0.26505,-1.66535 1.01528,-1.22185 0.96558,0.57052 -0.22163,1.83604 -1.01528,1.22185 m -60.14411,0.0115 1.50597,-4.26693 c -1.86038,0.70505 -4.05508,2.18919 -5.27091,3.76494 l 3.76494,0.50199 m 95.88038,-0.50199 v -0.251 l -5.5219,-3.51394 c 0.0876,4.11558 2.23812,3.76494 5.5219,3.76494 m -83.58159,-1.19776 c 3.36134,-0.12625 3.17334,-5.43581 -0.25074,-5.29099 -3.34904,0.14182 -3.05537,5.41499 0.25074,5.29099 m 25.60157,-3.06917 h -0.251 l -2.00796,2.00796 c 2.02328,2.35209 3.96121,0.4139 2.25896,-2.00796 m 18.32269,2.25896 v -0.251 l -2.00796,-2.00796 c -2.35209,2.02328 -0.4139,3.96121 2.00796,2.25896 m 23.5936,0.80821 c 3.32419,-0.19026 3.10507,-5.39114 -0.25099,-5.29175 -3.41405,0.10115 -3.12164,5.48476 0.25099,5.29175 m -29.6175,-5.32613 -1.50597,-0.251 c -1.49845,3.90675 -4.13415,4.25614 -5.52191,0 l -1.50597,0.50199 c 0.3785,1.59684 1.08154,3.60229 2.52075,4.54453 3.19668,2.09306 5.6228,-2.19044 6.0131,-4.79552 m -17.99188,4.25538 c -0.89982,-0.58959 -0.0447,-1.81445 0.84435,-1.23189 0.89982,0.58959 0.0447,1.81445 -0.84435,1.23189 m 26.46575,0 c -0.79992,-0.63377 0.379,-1.82223 1.12396,-1.23189 0.79992,0.63377 -0.379,1.82223 -1.12396,1.23189 m -24.26025,-2.23977 c -1.04288,-0.26881 -0.59209,-1.85787 0.42218,-1.5755 0.99093,0.27559 0.59461,1.83779 -0.42218,1.5755 m 22.61673,0 c -1.00022,-0.26229 -0.57729,-1.84908 0.42218,-1.5755 1.03184,0.28212 0.61142,1.84658 -0.42218,1.5755 m -9.5913,-2.51723 h -3.01195 c 0.15562,2.99061 2.85633,2.99061 3.01195,0 m -16.81672,1.75697 1.25498,-1.50598 v -0.25099 l -5.01991,-4.76892 1.75697,0.50199 -0.50199,-1.75697 4.76892,5.01991 h 0.25099 l 1.50598,-1.25498 c -1.54388,-4.83468 -6.44633,-5.88033 -10.79282,-6.77688 0.89957,4.3608 1.9658,9.19698 6.77688,10.79282 m 37.39837,-10.79282 c -4.3608,0.89957 -9.19698,1.9658 -10.79282,6.77688 3.63392,2.27302 3.78276,-2.94016 6.52589,-3.76493 l -0.50199,1.75697 1.75697,-0.50199 c -0.62422,2.081 -4.25789,2.41834 -4.53775,4.76866 -0.37348,3.1382 3.86333,-0.10943 4.5114,-0.77532 2.06394,-2.12092 2.46528,-5.483 3.0383,-8.26027 m -31.29942,9.50345 c -0.8574,-0.47363 -0.36997,-2.0175 0.60289,-1.45 0.84134,0.49044 0.36545,1.98512 -0.60289,1.45 m 17.8207,0.062 c -0.94575,-0.30597 -0.30622,-1.87268 0.60289,-1.59583 0.94324,0.28688 0.33232,1.89803 -0.60289,1.59583 m -29.19056,-1.28259 c -1.58604,-2.6347 -2.09431,-3.51394 -5.27091,-3.51394 1.14103,2.94091 2.26398,3.13368 5.27091,3.51394 m 14.13182,-0.27258 c -0.77684,-0.4646 -0.29292,-1.87871 0.60188,-1.44022 0.88401,0.43322 0.35843,2.01424 -0.60188,1.44022 m 12.12309,0 c -0.70103,-0.48543 -0.0454,-1.84984 0.77658,-1.44022 0.9435,0.47012 0.0771,2.03081 -0.77658,1.44022 m 20.17931,-3.24136 c -3.1766,0 -3.68487,0.87924 -5.27091,3.51394 3.00693,-0.38026 4.12988,-0.57303 5.27091,-3.51394 m -56.72504,3.10481 c 3.51871,0.10969 3.49938,-5.358 0,-5.31383 -3.39573,0.0429 -3.33172,5.20967 0,5.31383 m 61.74495,-0.0349 c 3.50215,-0.15612 3.27701,-5.55554 -0.25099,-5.27066 -3.32218,0.26831 -3.12766,5.421 0.25099,5.27066 m -34.48606,-0.82252 c -0.78286,-0.59536 0.15185,-1.954 0.95228,-1.28108 0.76177,0.64079 -0.12901,1.90682 -0.95228,1.28108 m 6.27489,0 c -0.78285,-0.59536 0.15186,-1.954 0.95228,-1.28108 0.76177,0.64079 -0.12901,1.90682 -0.95228,1.28108 m -3.08348,-0.26103 c -0.88702,-0.52684 -0.0755,-1.93066 0.81523,-1.4121 0.88903,0.5173 0.0871,1.94822 -0.81523,1.4121 m -9.36666,-0.9824 1.75697,-1.00398 -3.26294,-6.0239 2.00796,0.75299 v -1.75697 h 1.00398 l 1.50598,6.27489 2.25896,-0.50199 c -0.21586,-4.94964 -3.41153,-7.99572 -7.52987,-10.29083 -0.35441,4.48505 -1.8531,9.15131 2.25896,12.54979 m 19.82867,0 c 3.403,-4.42782 2.22583,-7.49122 2.00796,-12.54979 -4.11834,2.29511 -7.31401,5.34119 -7.52987,10.29083 l 2.25896,0.50199 1.50598,-6.27489 h 1.00398 v 1.75697 l 2.00796,-0.75299 -3.26294,6.0239 2.00797,1.00398 m -36.39063,-2.87089 c 2.36112,0.40963 2.90101,-3.29231 0.49723,-3.58673 -2.28908,-0.28011 -2.71327,3.20221 -0.49723,3.58673 m 25.59781,0.10994 -0.75299,-6.77689 1.50598,1.25498 1.50597,-1.25498 -0.75299,6.77689 c 6.40742,-0.005 0.73115,-9.41009 -0.50199,-12.0478 h -0.50199 c -1.23791,2.64826 -6.92573,12.04278 -0.50199,12.0478 m 26.36535,-0.13353 c 2.25469,0.62749 3.13067,-2.96351 0.98214,-3.51871 -2.33526,-0.60365 -3.29658,2.8744 -0.98214,3.51871 m -39.41713,-1.37245 c -0.38026,-3.00693 -0.57303,-4.12988 -3.51394,-5.27091 0,3.1766 0.87924,3.68487 3.51394,5.27091 m 27.86053,0 c 2.36036,-1.93969 3.26294,-1.99667 3.26294,-5.27091 l -3.26294,1.50598 v 3.76493 m -47.6892,-0.60841 c 3.49211,0.32654 3.93436,-6.26787 0.98064,-6.77362 -4.2845,-0.73392 -4.77042,6.41946 -0.98064,6.77362 m 66.76488,-0.004 c 3.49461,0.42946 4.13666,-6.2641 1.45226,-6.79646 -4.29253,-0.85138 -5.3801,6.31405 -1.45226,6.79646 m -60.48998,-3.0019 c 4.47224,0.96532 3.58472,-5.44812 -0.25,-6.21341 -3.8696,-0.77231 -3.04432,5.50208 0.25,6.21341 m 6.27564,-0.0693 c 2.36012,0.059 2.5574,-3.48056 0.24648,-3.63015 -2.39174,-0.15512 -2.60709,3.57117 -0.24648,3.63015 m 41.91906,0.0228 c 2.18642,0.20607 2.70774,-3.21099 0.49471,-3.55736 -2.49264,-0.3903 -2.93138,3.32745 -0.49471,3.55736 m 5.26765,0.0364 c 3.41931,0.89379 6.30124,-5.17504 2.23612,-6.21817 -3.24086,-0.83155 -6.24528,5.17051 -2.23612,6.21817 m -30.87273,-0.14106 c 0.34562,-2.56493 1.5012,-4.55859 -1.50598,-6.0239 -0.69174,2.91908 -0.73165,3.71599 1.50598,6.0239 m 9.78883,0 c 1.59483,-2.75895 1.99843,-2.88671 1.25498,-6.0239 -2.63947,1.2861 -2.48887,3.72001 -1.25498,6.0239 m -43.17127,-0.251 1.75697,-4.01593 -3.26295,-2.25896 1.50598,6.27489 m 76.55371,0 1.25498,-6.27489 -3.26295,2.25896 c 0.32554,1.57249 0.70379,2.99187 2.00797,4.01593 m -55.72106,-3.6043 c 3.51394,0.6172 4.21547,-4.81535 0.75298,-5.28697 -3.32845,-0.45305 -4.04906,4.70817 -0.75298,5.28697 m 33.63368,-0.0123 c 3.42584,0.69978 4.47224,-4.664 1.00348,-5.22397 -3.2765,-0.5291 -4.32114,4.54628 -1.00348,5.22397 m -57.47828,-12.94912 c 0.23819,2.99187 0.72312,7.3863 2.68164,9.76624 1.8019,2.18994 5.78244,3.31666 8.06399,1.19223 2.2567,-2.10183 1.43846,-6.21791 -0.72914,-8.06725 -2.47256,-2.10937 -6.869,-2.64073 -10.01649,-2.89122 m 82.32661,0 c -3.14724,0.25049 -7.54443,0.7816 -10.01649,2.89122 -2.05791,1.75622 -2.95648,5.73324 -0.94198,7.84814 2.13045,2.23662 6.20637,1.45853 8.06725,-0.72287 2.10937,-2.47256 2.64073,-6.869 2.89122,-10.01649 m -69.27483,9.03585 c 2.0416,1.33379 8.50173,2.2562 6.73873,-2.2552 -0.81548,-2.08653 -5.19686,-2.54359 -6.47092,-0.59386 -0.42368,0.64833 -0.1275,2.05792 -0.26781,2.84906 m 52.20712,1.40783 c 4.38489,0.33332 5.52918,-5.07237 0.75299,-5.39942 -4.07266,-0.27886 -4.99884,5.07664 -0.75299,5.39942 m -59.73699,-0.56775 c -4.28149,-1.33731 -2.26248,-7.98217 2.00796,-6.66193 4.33872,1.34132 2.24165,7.98945 -2.00796,6.66193 m 25.09982,0.064 c 3.3769,0.73467 4.65196,-4.21572 1.25373,-5.02719 -3.30386,-0.78913 -4.56612,4.30633 -1.25373,5.02719 m 19.82867,0 c 3.3518,0.72839 4.55131,-4.30859 1.25372,-5.03347 -3.3661,-0.74018 -4.67655,4.28952 -1.25372,5.03347 m 24.34634,-0.064 c -4.32968,-1.35237 -2.27026,-7.98468 2.00796,-6.66193 4.29002,1.32626 2.23462,7.98719 -2.00796,6.66193 m -37.39762,-0.22088 c 2.32523,0.15788 2.60233,-3.37865 0.25024,-3.54657 -2.29987,-0.1639 -2.5835,3.38794 -0.25024,3.54657 m 7.27888,0 c 2.32949,0.15813 2.55714,-3.38116 0.24924,-3.54657 -2.34355,-0.16791 -2.58425,3.38794 -0.24924,3.54657 m -38.15086,-0.99017 c 2.26875,0.48868 3.0235,-3.02852 0.74797,-3.52499 -2.25745,-0.4927 -3.0619,3.02676 -0.74797,3.52499 m 68.52436,0 c 2.26599,0.49446 3.01923,-3.02902 0.74546,-3.52499 -2.26599,-0.49446 -3.01923,3.02902 -0.74546,3.52499 m -32.38222,-9.41787 h -3.01195 c -0.54843,0.944 -1.03009,1.9151 -1.17842,3.01195 -0.67518,4.98628 6.44707,4.47777 5.31257,-0.50199 -0.20556,-0.90158 -0.66213,-1.71882 -1.1222,-2.50996 m -26.10356,3.51394 -6.27489,-1.25498 2.25896,3.26295 c 1.57249,-0.32554 2.99187,-0.70379 4.01593,-2.00797 m 53.2111,2.00797 2.25896,-3.26295 -6.27489,1.25498 c 1.02406,1.30418 2.44344,1.68243 4.01593,2.00797 m -31.37447,-6.2749 -2.00796,-2.00796 c -0.9435,0.30747 -1.9407,0.58632 -2.75995,1.16688 -4.03827,2.86135 0.0248,7.88051 3.20822,4.34398 0.89656,-0.99595 1.20378,-2.24892 1.55969,-3.5029 m 7.52987,-2.00796 -2.00796,2.00796 c 0.35591,1.25398 0.66313,2.50695 1.55969,3.5029 3.18338,3.53653 7.24649,-1.48263 3.20822,-4.34398 -0.81925,-0.58056 -1.81645,-0.85941 -2.75995,-1.16688 m -4.51792,-13.55377 h -0.50199 c -1.75697,2.86034 -4.82866,5.96817 -4.75537,9.53784 0.16566,8.07227 11.08272,6.74425 9.95073,-1.00399 -0.47539,-3.2534 -3.152,-5.76512 -4.69337,-8.53385 m -5.7729,12.29879 -0.50199,-4.01593 h -0.251 l -3.51394,5.5219 4.26693,-1.50597 m 15.31074,1.50597 -3.51394,-5.5219 h -0.251 l -0.50199,4.01593 4.26693,1.50597 m -10.54182,-1.13876 c -4.42129,-1.0208 -2.8478,-7.79493 1.50597,-6.75907 4.37837,1.04188 2.86035,7.76707 -1.50597,6.75907 m 0.0274,-1.2718 c 2.30338,0.93873 3.45721,-2.66959 1.22285,-3.41605 -2.03382,-0.6792 -3.13042,2.63872 -1.22285,3.41605 z"
       id="path466"
       sodipodi:nodetypes="cscsccsscccscccccscccscsccsssscsccccssscccccccccscscscccccccccccccccccccccscsccccccccccccccccccscccccscccscccccscccscscccscccscccssscccccccccccccccccccccccccsccccsccccccccsccccsccccccccccccsccsccsccccccccssccccccccccccsccsccscccccccccccccccccccccccccccccccccccccccccccccccccccccccccccccscccccccccccsccccccccccccccccsccccccccccscccsccccccccccccccsccsccccccccsccsccsscccccccccccccccccccccccccccccccsccccccccsccsccccccccccccccccccccccscccccccccccsccccscccccccccccccccccccccccccccccccsccsccsccccccccccccccccccccccccccccccccccccccccccsccccccccccccccccccccccccccccccccccscccccccccccccccccccccccsccccccccccscccscccccccccccccccccccscccccccccccccccccccccccccccccccccccccccccccccccccsccccccccsccccccccccccccccccccccccccccccccccccccccccsccscccccsccsccccccccccccccccccccccccccccccccccccccccccccccccccccccccccsccccccccscccccccccccccccccccccccccccsssccssccsccsccccccccccccccscccccccccccccccccccccccsccccscccssccccccccccccccccc" /></g></svg>
